<svg width="34" height="34" viewBox="0 0 34 34" fill="none" xmlns="http://www.w3.org/2000/svg">
<g clip-path="url(#clip0)">
<path d="M13.0152 12.9169C14.5435 12.9169 15.7824 11.6779 15.7824 10.1496C15.7824 8.62128 14.5435 7.38232 13.0152 7.38232C11.487 7.38232 10.248 8.62128 10.248 10.1496C10.248 11.6779 11.487 12.9169 13.0152 12.9169Z" fill="#332F2F"/>
<path d="M19.03 22.2289C20.0101 22.2289 20.8046 21.4344 20.8046 20.4543C20.8046 19.4742 20.0101 18.6797 19.03 18.6797C18.05 18.6797 17.2555 19.4742 17.2555 20.4543C17.2555 21.4344 18.05 22.2289 19.03 22.2289Z" fill="#332F2F"/>
<path d="M28.7587 14.6219C30.989 3.70704 22.121 -1.28821 12.2792 0.283843C2.43624 1.85355 2.80598 7.80734 2.22664 10.6488C1.07383 17.7696 8.40396 25.7276 8.40396 25.7276L7.98594 34H19.9214L20.8351 30.1965C20.8351 30.1965 21.3533 31.0655 24.4372 31.327C27.5223 31.5884 27.1467 27.8225 27.1467 27.8225C27.1467 27.8225 29.2003 26.9158 29.2003 26.2375C29.2003 25.5569 27.9851 24.6808 27.9851 24.6808C27.9851 24.6808 29.291 24.9151 29.7644 24.3652C30.2342 23.8152 29.1874 21.8287 29.1874 21.8287C29.1874 21.8287 30.7982 21.7875 31.7473 20.743C32.6964 19.6996 28.7587 16.6109 28.7587 14.6219ZM11.7116 16.1139C11.7116 16.1139 11.6445 15.3768 11.6116 15.0082C11.3148 14.9293 11.0287 14.8245 10.7543 14.702C10.4293 14.9776 9.77931 15.5275 9.77931 15.5275C9.77931 15.5275 9.66862 15.5887 9.61328 15.6193C9.55794 15.6488 8.52407 15.5275 8.52407 15.5275L6.746 13.4279V12.1738C6.746 12.1738 7.43014 11.5944 7.77162 11.3047C7.69744 11.0233 7.65269 10.7371 7.63268 10.4416C7.18404 10.2355 6.28911 9.82688 6.28911 9.82688L5.92997 8.78237L5.97118 8.61162L7.11927 6.11046L8.33331 5.79134C8.33331 5.79134 9.10577 6.14461 9.49082 6.32007C9.72633 6.1293 9.98067 5.9562 10.2491 5.8043C10.2103 5.33915 10.1349 4.4077 10.1349 4.4077L11.0228 3.52099L13.7641 3.2996L14.6519 4.18749C14.6519 4.18749 14.7085 4.89521 14.7379 5.24848C15.0947 5.34504 15.435 5.4734 15.7588 5.63001C16.0555 5.37448 16.6502 4.86577 16.6502 4.86577H17.9066L19.6976 6.95478V8.20772C19.6976 8.20772 18.9711 8.82947 18.6073 9.14153C18.6614 9.39471 18.6897 9.65613 18.7026 9.91991C19.1619 10.1849 20.078 10.7148 20.078 10.7148L20.3971 11.9288L19.0206 14.3099L17.8065 14.629C17.8065 14.629 17.0941 14.2169 16.7373 14.012C16.536 14.1686 16.3205 14.3075 16.0968 14.4359C16.1392 14.9116 16.2251 15.8619 16.2251 15.8619L15.3384 16.7498L12.6007 16.9995L11.7116 16.1139ZM22.8805 23.124L22.1022 23.3289C22.1022 23.3289 21.6453 23.064 21.4157 22.9332C21.2861 23.0333 21.1472 23.1217 21.0035 23.2041C21.0306 23.5103 21.086 24.1179 21.086 24.1179L20.5184 24.6866L18.7627 24.8468L18.1939 24.278C18.1939 24.278 18.1504 23.807 18.1292 23.568C17.9384 23.5173 17.7559 23.449 17.5805 23.3713C17.372 23.5479 16.9552 23.9 16.9552 23.9C16.9552 23.9 16.8834 23.9389 16.8492 23.9601C16.8139 23.9813 16.1498 23.9 16.1498 23.9L15.0099 22.5517V21.7462C15.0099 21.7462 15.4479 21.3753 15.667 21.1893C15.6199 21.0103 15.5916 20.8242 15.5786 20.6346C15.2902 20.5039 14.7167 20.2401 14.7167 20.2401L14.4859 19.5725L14.5118 19.4618L15.2478 17.8591L16.0273 17.6542C16.0273 17.6542 16.5219 17.8791 16.7691 17.9933C16.9199 17.8709 17.0835 17.7613 17.2555 17.6624C17.2319 17.3645 17.1836 16.7651 17.1836 16.7651L17.7524 16.1964L19.5104 16.055L20.0803 16.6238C20.0803 16.6238 20.1157 17.0772 20.1345 17.3045C20.363 17.3669 20.582 17.4493 20.7892 17.5494C20.98 17.3857 21.3615 17.0583 21.3615 17.0583H22.1681L23.3186 18.4008V19.2062C23.3186 19.2062 22.8523 19.6054 22.6179 19.8056C22.6532 19.9681 22.6709 20.1353 22.6792 20.3061C22.9735 20.4768 23.5623 20.8148 23.5623 20.8148L23.766 21.5943L22.8805 23.124Z" fill="#332F2F"/>
</g>
<defs>
<clipPath id="clip0">
<rect width="34" height="34" fill="white"/>
</clipPath>
</defs>
</svg>
