<svg width="414" height="512" viewBox="0 0 414 512" fill="none" xmlns="http://www.w3.org/2000/svg">
<g clip-path="url(#clip0)">
<path d="M497.943 6.05799C489.866 -2.01901 476.771 -2.01901 468.694 6.05799L-1.94201 476.693C-10.019 484.77 -10.019 497.865 -1.94201 505.942C2.09599 509.982 7.38999 512 12.683 512C17.976 512 23.269 509.981 27.308 505.941L497.943 35.306C506.019 27.23 506.019 14.135 497.943 6.05799Z" fill="white"/>
<path d="M497.942 476.694L27.306 6.05897C19.23 -2.01803 6.13399 -2.01803 -1.94201 6.05897C-10.019 14.135 -10.019 27.23 -1.94201 35.307L468.694 505.943C472.732 509.982 478.026 512.001 483.319 512.001C488.612 512.001 493.906 509.982 497.943 505.944C506.018 497.866 506.018 484.771 497.942 476.694Z" fill="white"/>
</g>
<defs>
<clipPath id="clip0">
<rect width="512" height="512" fill="white" transform="translate(-8)"/>
</clipPath>
</defs>
</svg>
