<svg width="36" height="36" viewBox="0 0 36 36" fill="none" xmlns="http://www.w3.org/2000/svg">
<path d="M31.3607 33.2601C31.3607 34.7708 30.1323 36 28.6213 36H7.3796C5.86749 36 4.63928 34.7708 4.63928 33.2601C4.63928 33.1136 4.6664 32.9681 4.71857 32.8314L12.0762 13.5492C12.0788 13.5187 12.0832 13.488 12.0869 13.4579V2.40901H11.2176C10.5521 2.40901 10.0136 1.86968 10.0136 1.20444C10.0136 0.539338 10.5521 0 11.2177 0H13.291C13.9565 0 14.496 0.539338 14.496 1.20444V13.5509C14.496 13.6204 14.4899 13.6889 14.4783 13.7572C14.4783 13.9043 14.4429 14.102 14.39 14.2385L9.95814 25.8524H25.9382L21.3596 14.2514C21.31 14.1264 21.2822 13.9944 21.2762 13.8608L21.2661 13.7881C21.2612 13.7405 21.2586 13.6932 21.2586 13.6459V1.20444C21.2586 0.539338 21.797 0 22.4626 0H24.5903C25.2559 0 25.7943 0.539338 25.7943 1.20444C25.7943 1.86975 25.2559 2.40901 24.5903 2.40901H23.6661V13.5372L31.2762 32.8179C31.3321 32.9593 31.3607 33.1087 31.3607 33.2601ZM15.6667 23.1688C15.6667 22.6708 16.0712 22.2657 16.5697 22.2657C17.068 22.2657 17.4733 22.6704 17.4733 23.1688C17.4733 23.6665 17.068 24.072 16.5697 24.072C16.0712 24.0721 15.6667 23.6665 15.6667 23.1688ZM16.2681 23.1688C16.2681 23.3346 16.4033 23.4697 16.5693 23.4697C16.7351 23.4697 16.8703 23.3347 16.8703 23.1688C16.8703 23.0027 16.7351 22.8677 16.5693 22.8677C16.4033 22.8677 16.2681 23.0027 16.2681 23.1688ZM20.3331 22.2657C20.3331 21.7676 20.7382 21.3621 21.2367 21.3621C21.7348 21.3621 22.1395 21.7672 22.1395 22.2657C22.1395 22.7629 21.7348 23.1688 21.2367 23.1688C20.7382 23.1688 20.3331 22.7638 20.3331 22.2657ZM20.9351 22.2657C20.9351 22.4314 21.0701 22.5661 21.2362 22.5661C21.402 22.5661 21.5371 22.4314 21.5371 22.2657C21.5371 22.0991 21.4021 21.9645 21.2362 21.9645C21.0701 21.9645 20.9351 22.0999 20.9351 22.2657ZM17.8231 19.2549C17.8231 18.5628 18.3863 18 19.0786 18C19.7698 18 20.3331 18.5628 20.3331 19.2549C20.3331 19.946 19.7698 20.5098 19.0786 20.5098C18.3858 20.5098 17.8231 19.9469 17.8231 19.2549ZM18.4253 19.2549C18.4253 19.6146 18.7183 19.9073 19.0786 19.9073C19.4379 19.9073 19.7315 19.6146 19.7315 19.2549C19.7315 18.8948 19.4379 18.6015 19.0786 18.6015C18.7183 18.6015 18.4253 18.8948 18.4253 19.2549Z" fill="#332F2F"/>
</svg>
