<svg width="31" height="24" viewBox="0 0 31 24" fill="none" xmlns="http://www.w3.org/2000/svg">
<path d="M30.606 21.637C30.5688 21.5274 30.5341 21.4365 30.5018 21.3637C29.9679 20.0515 28.9478 18.441 27.4419 16.5315L27.4101 16.4878L27.3942 16.4663L27.3781 16.4443H27.3619C26.6785 15.5552 26.2457 14.9574 26.0644 14.6513C25.7328 14.0682 25.6585 13.478 25.8398 12.88C25.9678 12.4282 26.4488 11.4741 27.2816 10.0163C27.7197 9.24367 28.0666 8.62446 28.3228 8.15795C30.1706 4.80538 30.9717 2.66304 30.726 1.73009L30.6305 1.51207C30.5664 1.38082 30.4008 1.26075 30.1342 1.15124C29.8668 1.04196 29.5252 1.02389 29.1085 1.09672L24.4948 1.14021C24.4201 1.10407 24.3134 1.10744 24.1743 1.15124C24.0355 1.19504 23.966 1.21702 23.966 1.21702L23.8857 1.27177L23.8219 1.33755C23.7685 1.38105 23.7098 1.45755 23.6456 1.5669C23.5818 1.67587 23.5285 1.80376 23.4858 1.94949C22.9835 3.71315 22.4124 5.35291 21.7715 6.86869C21.3763 7.77253 21.0133 8.55585 20.6819 9.21909C20.3509 9.8821 20.0732 10.3706 19.8491 10.6837C19.6246 10.9971 19.4221 11.2482 19.2402 11.4379C19.0585 11.6277 18.9199 11.7079 18.8239 11.6785C18.7276 11.6492 18.637 11.6201 18.5512 11.591C18.4018 11.4597 18.2816 11.2812 18.191 11.0553C18.1 10.8294 18.0387 10.5451 18.0067 10.2026C17.9748 9.85981 17.9559 9.56499 17.9506 9.31711C17.9456 9.06953 17.9479 8.71934 17.9587 8.26753C17.9698 7.81549 17.9748 7.50964 17.9748 7.34929C17.9748 6.79532 17.9827 6.19411 17.9986 5.5455C18.0148 4.89689 18.0278 4.38297 18.0388 4.00437C18.0497 3.62539 18.0547 3.22443 18.0547 2.80172C18.0547 2.37901 18.0358 2.04751 17.9986 1.8069C17.9618 1.5666 17.9053 1.33334 17.8308 1.10721C17.7559 0.881304 17.6463 0.706554 17.5024 0.582498C17.3582 0.458595 17.179 0.360269 16.9657 0.287214C16.3996 0.112387 15.6788 0.0178138 14.8028 0.00311088C12.8164 -0.0259887 11.54 0.149068 10.974 0.528051C10.7497 0.688175 10.5468 0.906957 10.3653 1.18371C10.173 1.50449 10.1462 1.67955 10.285 1.70834C10.9259 1.83937 11.3796 2.1528 11.6467 2.64833L11.7429 2.91092C11.8177 3.10037 11.8925 3.43578 11.9673 3.91669C12.042 4.3976 12.0902 4.92958 12.1114 5.51234C12.1647 6.57654 12.1647 7.48751 12.1114 8.24532C12.0579 9.00344 12.0074 9.59363 11.9592 10.0163C11.911 10.439 11.839 10.7816 11.7429 11.0439C11.6467 11.3062 11.5826 11.4666 11.5505 11.5248C11.5185 11.583 11.4918 11.6196 11.4706 11.634C11.3318 11.7066 11.1874 11.7436 11.038 11.7436C10.8883 11.7436 10.7069 11.6415 10.4933 11.4373C10.2798 11.2332 10.0582 10.9527 9.82854 10.5956C9.59887 10.2383 9.33986 9.73913 9.05139 9.09786C8.76315 8.4566 8.46408 7.69871 8.15434 6.82419L7.89808 6.18998C7.73788 5.78197 7.51905 5.18788 7.24135 4.40824C6.96349 3.6283 6.71789 2.87386 6.50438 2.14507C6.41904 1.83898 6.29082 1.60596 6.11996 1.44561L6.03978 1.37982C5.98647 1.32163 5.9009 1.25983 5.78352 1.19397C5.66597 1.12819 5.54331 1.08102 5.41504 1.052L1.02549 1.09549C0.576938 1.09549 0.272589 1.23417 0.112335 1.51116L0.0481997 1.64218C0.0161601 1.71516 0 1.83171 0 1.99214C0 2.15249 0.0320396 2.3493 0.096175 2.58232C0.736968 4.63767 1.43382 6.61988 2.18672 8.52927C2.93962 10.4387 3.59388 11.9767 4.14911 13.1421C4.70444 14.3083 5.27049 15.4089 5.84726 16.4435C6.42403 17.4785 6.80581 18.1417 6.99261 18.4331C7.17963 18.725 7.32653 18.9432 7.43331 19.089L7.83389 19.6136C8.09021 19.9635 8.4666 20.3825 8.96324 20.8707C9.46 21.3592 10.0099 21.8401 10.6134 22.3142C11.2169 22.7875 11.919 23.1738 12.7201 23.4725C13.5211 23.7715 14.3007 23.8915 15.0591 23.8336H16.9014C17.2751 23.7896 17.5582 23.6293 17.7506 23.3525L17.8143 23.2429C17.8572 23.1559 17.8973 23.0208 17.9343 22.8389C17.9718 22.6567 17.9905 22.456 17.9905 22.2377C17.9795 21.611 18.0145 21.0463 18.0944 20.5435C18.1742 20.0408 18.2652 19.6618 18.367 19.4066C18.4687 19.1516 18.5836 18.9364 18.7113 18.762C18.8394 18.5871 18.9306 18.4812 18.9841 18.4448C19.0373 18.4081 19.0798 18.3832 19.1118 18.3683C19.3682 18.2517 19.6698 18.3646 20.0173 18.7074C20.3644 19.05 20.69 19.4729 20.9946 19.9756C21.299 20.4787 21.6647 21.0431 22.0919 21.6698C22.5193 22.2966 22.893 22.7626 23.2133 23.0692L23.5335 23.3315C23.7474 23.5066 24.0251 23.6669 24.367 23.8127C24.7082 23.9583 25.0071 23.9948 25.2638 23.9219L29.3649 23.8346C29.7705 23.8346 30.0861 23.743 30.31 23.5611C30.5343 23.3789 30.6676 23.1782 30.7106 22.9599C30.7535 22.7413 30.7558 22.4934 30.7187 22.2162C30.6807 21.9396 30.6433 21.7463 30.606 21.637Z" fill="#323232"/>
</svg>
