<svg width="19" height="20" viewBox="0 0 19 20" fill="none" xmlns="http://www.w3.org/2000/svg">
<path d="M4.31699 6.65381H0.234985V19.5574H4.31699V6.65381Z" fill="white"/>
<path d="M17.7134 7.8325C16.856 6.84722 15.7219 6.35449 14.3118 6.35449C13.7923 6.35449 13.3201 6.42175 12.8953 6.55638C12.4707 6.69092 12.112 6.87969 11.8192 7.12277C11.5265 7.36585 11.2934 7.59151 11.1204 7.79975C10.9558 7.99755 10.7949 8.22795 10.6379 8.48859V6.65376H6.56805L6.58053 7.27884C6.58889 7.69563 6.59301 8.98027 6.59301 11.1329C6.59301 13.2858 6.58478 16.0939 6.56823 19.5574H10.6379V12.3568C10.6379 11.9142 10.683 11.5627 10.7739 11.302C10.9472 10.8591 11.2087 10.4883 11.5594 10.1889C11.9101 9.88921 12.3449 9.73948 12.8646 9.73948C13.5736 9.73948 14.0954 9.99771 14.4294 10.5142C14.7633 11.0306 14.9303 11.7447 14.9303 12.6562V19.557H19V12.1617C18.9997 10.2604 18.5712 8.81746 17.7134 7.8325Z" fill="white"/>
<path d="M2.30074 0.442871C1.61636 0.442871 1.06183 0.653527 0.637022 1.07443C0.212254 1.49542 0 2.02692 0 2.66942C0 3.30294 0.206145 3.83261 0.618478 4.25784C1.03068 4.68312 1.57503 4.89588 2.25122 4.89588H2.27596C2.96874 4.89588 3.52751 4.68331 3.95215 4.25784C4.37679 3.83261 4.58497 3.30312 4.57678 2.66942C4.56855 2.02696 4.35812 1.49542 3.94591 1.07443C3.53375 0.653345 2.98516 0.442871 2.30074 0.442871Z" fill="white"/>
</svg>
