<svg width="18" height="17" viewBox="0 0 18 17" fill="none" xmlns="http://www.w3.org/2000/svg">
<path d="M2.31039 0H15.6898C16.9604 0 18 0.888444 18 2.18183V14.8182C18 16.1115 16.9604 17 15.6898 17H2.31039C1.03941 17 0 16.1115 0 14.8182V2.18183C0 0.888444 1.03941 0 2.31039 0ZM13.1124 1.88877C12.6665 1.88877 12.3023 2.23298 12.3023 2.65417V4.48603C12.3023 4.90704 12.6665 5.25142 13.1124 5.25142H15.1468C15.5926 5.25142 15.9573 4.90704 15.9573 4.48603V2.65417C15.9573 2.23298 15.5926 1.88877 15.1468 1.88877H13.1124ZM15.9657 7.18924H14.3815C14.5314 7.65144 14.6126 8.14104 14.6126 8.64758C14.6126 11.4753 12.1071 13.7674 9.0172 13.7674C5.92743 13.7674 3.42243 11.4753 3.42243 8.64758C3.42243 8.14069 3.50338 7.65126 3.65345 7.18924H2.00027V14.3703C2.00027 14.7419 2.32221 15.0462 2.71588 15.0462H15.2505C15.6442 15.0462 15.9661 14.742 15.9661 14.3703V7.18924H15.9657ZM9.01701 5.15489C7.02062 5.15489 5.402 6.63592 5.402 8.46308C5.402 10.2903 7.02062 11.7712 9.01701 11.7712C11.0136 11.7712 12.6323 10.2903 12.6323 8.46308C12.6323 6.63592 11.0137 5.15489 9.01701 5.15489Z" fill="white"/>
</svg>
