<svg width="23" height="23" viewBox="0 0 23 23" fill="none" xmlns="http://www.w3.org/2000/svg">
<path d="M2.95213 0H20.0479C21.6714 0 22.9998 1.20201 22.9998 2.9519V20.0481C22.9998 21.798 21.6714 23 20.0479 23H2.95213C1.32812 23 0 21.798 0 20.0481V2.9519C0 1.20201 1.32812 0 2.95213 0ZM16.7545 2.5554C16.1849 2.5554 15.7194 3.02109 15.7194 3.59092V6.06934C15.7194 6.63893 16.1849 7.10486 16.7545 7.10486H19.3541C19.9237 7.10486 20.3896 6.63893 20.3896 6.06934V3.59092C20.3896 3.02109 19.9237 2.5554 19.3541 2.5554H16.7545ZM20.4004 9.72662H18.3761C18.5677 10.3519 18.6713 11.0144 18.6713 11.6997C18.6713 15.5253 15.4701 18.6265 11.5218 18.6265C7.57386 18.6265 4.37306 15.5253 4.37306 11.6997C4.37306 11.0139 4.47649 10.3517 4.66825 9.72662H2.55587V19.4421C2.55587 19.9449 2.96725 20.3565 3.47025 20.3565H19.4865C19.9895 20.3565 20.4009 19.9451 20.4009 19.4421V9.72662H20.4004ZM11.5216 6.97427C8.9707 6.97427 6.90248 8.97802 6.90248 11.4501C6.90248 13.9221 8.9707 15.9258 11.5216 15.9258C14.0728 15.9258 16.1412 13.9221 16.1412 11.4501C16.1412 8.97802 14.073 6.97427 11.5216 6.97427Z" fill="#323232"/>
</svg>
