<svg width="47" height="49" viewBox="0 0 47 49" fill="none" xmlns="http://www.w3.org/2000/svg">
<rect width="43" height="10.9639" fill="white"/>
<rect x="23" y="16.4458" width="20" height="5.48193" fill="white"/>
<rect x="30" y="27.4096" width="13" height="5.48193" fill="white"/>
<path d="M10 10.9639L10 47.1446L4.64873e-07 47.1446L6.13468e-07 19.4971L10 10.9639Z" fill="white"/>
<path d="M14.056 47V38.456H14.872L18.34 46.34H17.884L21.316 38.456H22.132V47H21.22V39.752L21.592 39.8L18.448 47H17.752L14.56 39.8L14.956 39.752L14.968 47H14.056ZM24.2396 47V38.456H25.2236V47H24.2396ZM27.3333 47V38.456H30.7293C31.6493 38.456 32.3533 38.66 32.8413 39.068C33.3373 39.476 33.5853 40.064 33.5853 40.832C33.5853 41.568 33.3333 42.148 32.8293 42.572C32.3333 42.988 31.6333 43.196 30.7293 43.196L31.6173 43.028C31.9293 43.028 32.1973 43.116 32.4213 43.292C32.6453 43.46 32.8253 43.732 32.9613 44.108L34.0413 47H32.9973L31.9413 44.156C31.8053 43.796 31.6173 43.56 31.3773 43.448C31.1453 43.328 30.8333 43.268 30.4413 43.268H28.3053V47H27.3333ZM28.3053 42.452H30.6453C31.3093 42.452 31.8013 42.316 32.1213 42.044C32.4493 41.772 32.6133 41.372 32.6133 40.844C32.6133 40.316 32.4533 39.924 32.1333 39.668C31.8133 39.404 31.3173 39.272 30.6453 39.272H28.3053V42.452ZM35.7633 47H34.7433L38.4993 38.456H39.3633L43.1193 47H42.1113L38.7633 39.176H39.1233L35.7633 47ZM36.3393 44.804L36.6873 43.988H41.1753L41.5233 44.804H36.3393Z" fill="white"/>
</svg>
