<svg width="90" height="78" viewBox="0 0 90 78" fill="none" xmlns="http://www.w3.org/2000/svg">
<path d="M86.3645 35.8492H3.63551C1.62773 35.8492 0 37.2598 0 39C0 40.7402 1.62773 42.1508 3.63551 42.1508H86.3645C88.3724 42.1508 90 40.7402 90 39C90 37.2599 88.3724 35.8492 86.3645 35.8492Z" fill="white"/>
<path d="M86.3645 11.9497H3.63551C1.62773 11.9497 0 13.3604 0 15.1005C0 16.8405 1.62773 18.2512 3.63551 18.2512H86.3645C88.3724 18.2512 90 16.8405 90 15.1005C90 13.3604 88.3724 11.9497 86.3645 11.9497Z" fill="white"/>
<path d="M86.3645 59.7488H3.63551C1.62773 59.7488 0 61.1593 0 62.8995C0 64.6398 1.62773 66.0503 3.63551 66.0503H86.3645C88.3724 66.0503 90 64.6398 90 62.8995C90 61.1593 88.3724 59.7488 86.3645 59.7488Z" fill="white"/>
</svg>
