<svg width="34" height="34" viewBox="0 0 34 34" fill="none" xmlns="http://www.w3.org/2000/svg">
<path d="M14.0117 17.9961H19.9883V19.9883H14.0117V17.9961Z" fill="#332F2F"/>
<path d="M27.5838 19.9883H21.9805V20.9844C21.9805 21.5348 21.5348 21.9805 20.9844 21.9805H13.0156C12.4652 21.9805 12.0195 21.5348 12.0195 20.9844V19.9883H6.41624C5.12833 19.9883 3.9893 19.1673 3.58153 17.9455L0 7.1991V28.9531C0 30.6008 1.34058 31.9414 2.98828 31.9414H31.0117C32.6594 31.9414 34 30.6008 34 28.9531V7.19987L30.4182 17.9455C30.0107 19.1673 28.8717 19.9883 27.5838 19.9883Z" fill="#332F2F"/>
<path d="M20.9844 2.05859H13.0156C11.3679 2.05859 10.0274 3.39917 10.0274 5.04688V6.04297H1.71387L5.47075 17.3152C5.60693 17.7227 5.98721 17.9961 6.41626 17.9961H12.0195V17C12.0195 16.4496 12.4652 16.0039 13.0156 16.0039H20.9844C21.5348 16.0039 21.9805 16.4496 21.9805 17V17.9961H27.5838C28.0128 17.9961 28.3931 17.7227 28.5293 17.3152L32.2864 6.04297H23.9727V5.04688C23.9727 3.39917 22.6321 2.05859 20.9844 2.05859ZM12.0195 6.04297V5.04688C12.0195 4.49721 12.466 4.05078 13.0156 4.05078H20.9844C21.5341 4.05078 21.9805 4.49721 21.9805 5.04688V6.04297H12.0195Z" fill="#332F2F"/>
</svg>
