<svg width="37" height="37" viewBox="0 0 37 37" fill="none" xmlns="http://www.w3.org/2000/svg">
<g clip-path="url(#clip0)">
<path d="M18.4977 7.80273C14.8827 7.80273 11.9415 10.7436 11.9415 14.3586C11.9415 17.9738 14.8827 20.9147 18.4977 20.9147C22.1126 20.9147 25.0535 17.9738 25.0535 14.3586C25.0535 10.7436 22.1126 7.80273 18.4977 7.80273Z" fill="black"/>
<path d="M32.1534 18.7955L30.1652 14.3585L32.1534 9.92154L27.9371 7.50037L26.9375 2.74214L22.1031 3.26183L18.4977 0L14.8921 3.26183L10.0579 2.74242L9.05832 7.50065L4.8418 9.92154L6.82994 14.3585L4.8418 18.7955L9.05832 21.2167L9.59974 23.7945L5.09896 33.3581L9.79622 33.4197L12.8376 36.9999L17.2616 27.5989L18.4977 28.7171L19.7336 27.5989L24.1579 36.9999L27.1989 33.4197L31.8962 33.3581L27.3954 23.7945L27.9371 21.2167L32.1534 18.7955ZM18.4977 23.0823C13.6873 23.0823 9.77392 19.169 9.77392 14.3585C9.77392 9.54808 13.6873 5.63473 18.4977 5.63473C23.3079 5.63473 27.2215 9.54836 27.2215 14.3585C27.2215 19.169 23.3079 23.0823 18.4977 23.0823Z" fill="black"/>
</g>
<defs>
<clipPath id="clip0">
<rect width="37" height="37" fill="white"/>
</clipPath>
</defs>
</svg>
