<svg width="41" height="41" viewBox="0 0 41 41" fill="none" xmlns="http://www.w3.org/2000/svg">
<path d="M24.8683 30.4486C23.7742 29.7148 14.4046 23.333 11.8791 18.8666L11.7406 18.6207L11.4557 18.6099C9.28094 18.5212 7.59008 19.7793 6.86562 20.4298C6.56992 20.1301 6.26885 19.8223 5.96105 19.5051L5.59412 19.1287L5.22987 19.5078C3.80379 20.9876 3.17342 22.364 3.35352 23.6045C3.50003 24.6113 4.1882 25.4876 5.34412 26.1422C5.55245 26.2605 7.96508 27.9016 10.5874 29.9957C10.1344 30.458 8.48793 31.5239 7.89116 31.9486C7.22046 32.4244 4.42611 34.9607 4.42611 34.9607L6.23121 35.3868L6.85621 36.6072C6.85621 36.6072 7.71374 34.5078 8.6546 33.4715C9.59546 32.4352 11.2393 31.6072 11.2393 31.6072C11.2393 31.6072 10.3508 32.8761 9.71374 34.1072C9.07799 35.3384 8.91535 37.4728 8.91535 37.4728L10.0188 37.1234L10.7796 38.782C10.7796 38.782 10.9826 36.4379 11.4503 34.911C11.828 33.6758 12.7541 32.5051 13.0981 32.0951C16.4234 35.0226 19.8979 38.5575 20.5928 39.2712C21.0121 39.7524 21.5551 40.1072 22.2621 40.2645C22.5148 40.3196 22.7715 40.3465 23.0215 40.3465C24.4597 40.3465 25.8253 39.45 26.7043 37.8801C27.7312 36.0535 28.0202 33.2443 26.2379 31.3989C25.75 30.8895 25.2877 30.6005 24.8683 30.4486ZM10.7688 28.8398C8.36293 26.9473 6.16804 25.4406 5.84815 25.2591C4.9624 24.7578 4.4624 24.1516 4.36159 23.458C4.24331 22.6435 4.66266 21.6838 5.6089 20.6005C7.96239 23.0091 9.97449 24.9204 11.6828 26.4406C10.91 27.6946 10.7742 28.368 10.7688 28.8398ZM12.2635 25.5925C10.9073 24.3868 9.35487 22.9258 7.58605 21.1543C8.18686 20.6287 9.50809 19.6623 11.1438 19.6234C11.9987 21.0252 13.4154 22.5642 15.0121 24.0535C14.1815 24.1381 13.1438 24.5011 12.2635 25.5925ZM13.2971 30.9191C13.3831 30.2685 13.5847 29.372 14.039 28.4486C17.0309 30.8855 18.7299 31.7766 19.4731 32.0898C19.3576 32.9473 19.1627 34.9231 19.5014 36.7295C17.8952 35.1408 15.5336 32.8586 13.2971 30.9191ZM25.8226 37.3868C25.1895 38.5145 23.9812 39.6045 22.4852 39.2739C19.9167 38.7067 20.211 33.7161 20.5417 31.8411L20.625 31.3666L20.1533 31.2564C20.1331 31.2511 18.535 30.8021 14.5861 27.5777C15.328 26.7148 16.5162 26.329 17.4194 26.1583C19.6492 28.0091 21.8696 29.6086 23.1963 30.5347C23.1559 30.5548 23.1183 30.5736 23.0847 30.5951C21.5551 31.4634 20.9167 33.9755 21.2487 35.1785C21.6385 36.5938 22.5834 37.5024 23.578 37.4836C24.0027 37.4675 25.0377 37.2282 25.4154 35.3384L25.4745 35.0441L25.2473 34.8519C23.8119 33.6301 23.035 32.9083 22.664 32.5468C22.9006 32.0871 23.2124 31.6879 23.5874 31.4755C24.1559 31.1556 24.8024 31.3653 25.5135 32.1032C26.9315 33.579 26.668 35.8774 25.8226 37.3868ZM24.3495 35.4271C24.1721 36.0709 23.875 36.458 23.5377 36.4675C23.5336 36.4675 23.5283 36.4675 23.5215 36.4675C23.0995 36.4675 22.5067 35.9285 22.2258 34.9097C22.1358 34.5844 22.1613 34.0992 22.2823 33.5938C22.703 33.9876 23.3602 34.5817 24.3495 35.4271Z" fill="#332F2F"/>
<path d="M8.00938 11.5738L6.40186 16.723C6.40186 16.723 12.9717 17.3614 18.4422 19.0671C23.9153 20.7767 29.6801 23.9904 29.6801 23.9904L31.3145 18.7499C31.3145 18.7499 26.4045 13.8009 20.5564 11.9757C14.711 10.1517 8.00938 11.5738 8.00938 11.5738Z" fill="#332F2F"/>
<path d="M41 18.8278L39.0874 16.8211L39.2755 16.2122C39.2755 16.2122 40.961 13.1128 36.7164 13.6853C36.496 13.7283 36.3642 13.7996 36.2903 13.8883L23.6599 0.647705L0 5.86948L6.50672 11.6813L6.85618 10.5617C6.85618 10.5617 14.3306 8.97701 20.8481 11.0106C27.3669 13.0469 32.8427 18.5644 32.8427 18.5644L32.2339 20.5173L37.121 19.5738C36.3065 22.1786 35.371 25.18 35.0793 26.1087L33.6882 25.6732L32.6774 28.9071L34.9301 28.2055L36.586 30.1289L37.5941 26.895L36.0901 26.4232L38.2997 19.3453L41 18.8278ZM38.1989 18.1033C38.0309 18.6437 37.4556 18.9447 36.9153 18.7767C36.375 18.6074 36.0726 18.0335 36.2406 17.4931C36.4113 16.9528 36.9866 16.6517 37.5255 16.8197C38.0645 16.9878 38.3669 17.5644 38.1989 18.1033ZM37.2446 14.8883C37.7782 14.7297 38.6841 14.5657 38.4436 15.3372C38.4194 15.4125 38.3535 15.6302 38.2513 15.9461L37.2446 14.8883Z" fill="#332F2F"/>
</svg>
