<svg width="34" height="34" viewBox="0 0 34 34" fill="none" xmlns="http://www.w3.org/2000/svg">
<path d="M27.3924 23.9067C27.1413 23.3058 26.5366 22.9211 25.9596 22.6845L22.0595 20.8886L20.1857 19.3083L17.1749 22.3029H17.1726L18.472 30.989C18.4766 31.0188 18.4689 31.0493 18.4512 31.0736L17.0926 32.9329C17.071 32.9628 17.0366 32.9801 16.9998 32.9801C16.9631 32.9801 16.9286 32.9626 16.907 32.9329L15.5486 31.0736C15.5307 31.0493 15.5232 31.0186 15.5277 30.989L16.8269 22.3028H16.8249L13.8143 19.3083L11.9405 20.8886L8.0401 22.6845C7.46302 22.9211 6.89597 23.2804 6.60747 23.9067C6.60747 23.9067 2.36791 34 4.66743 34H29.3329C31.632 34.0002 27.3924 23.9067 27.3924 23.9067Z" fill="#332F2F"/>
<path d="M27.6633 10.0676C27.722 10.0613 27.7748 10.0332 27.8112 9.98783C27.848 9.94251 27.8647 9.88409 27.8581 9.82597C27.8145 9.45317 27.7706 9.08113 27.7274 8.70833L27.6365 7.9282C27.6226 7.81174 27.5184 7.72706 27.4011 7.73755L27.2324 7.73778L27.2357 5.11906L27.3239 5.08697L27.6183 4.9807C27.8676 4.8905 28.0336 4.65414 28.0336 4.3893C28.0336 4.12438 27.8676 3.88794 27.6183 3.79767L17.2136 0.0374984C17.0752 -0.0124995 16.9239 -0.0124995 16.7859 0.0374984L6.38096 3.79767C6.13182 3.88794 5.96582 4.12438 5.96582 4.3893C5.96582 4.65414 6.13182 4.8905 6.38096 4.9807L10.2274 6.37076C9.95585 7.22792 9.83227 8.20935 9.84337 9.30203C9.91106 15.5347 13.5291 19.2514 16.8769 19.2514C20.1856 19.2514 23.8428 15.5347 23.9102 9.30203C23.9214 8.24296 23.8046 7.28902 23.5506 6.45085L26.3474 5.44017L26.3533 7.73877L26.1843 7.7387C26.0669 7.72844 25.9627 7.81281 25.9493 7.93019L25.7305 9.82812C25.7239 9.88592 25.741 9.94373 25.7776 9.98921C25.8143 10.0345 25.8676 10.0635 25.9255 10.0683L27.6633 10.0676ZM16.8774 17.7378C13.9565 17.7378 11.9411 14.3162 11.5345 10.8958C11.1586 7.73249 15.7332 7.58526 15.9989 9.54589C16.0808 10.1486 15.3887 10.7943 15.4672 11.0432C15.8543 12.272 22.2641 7.03245 22.2203 10.8942C22.1895 13.6208 19.6603 17.7378 16.8774 17.7378Z" fill="#332F2F"/>
</svg>
