<svg width="23" height="25" viewBox="0 0 23 25" fill="none" xmlns="http://www.w3.org/2000/svg">
<path d="M5.22579 9.78442H0.284424V28.9623H5.22579V9.78442Z" fill="#323232"/>
<path d="M21.4425 11.5363C20.4045 10.0719 19.0316 9.3396 17.3247 9.3396C16.6958 9.3396 16.1242 9.43958 15.61 9.63967C15.0959 9.83963 14.6618 10.1202 14.3073 10.4815C13.953 10.8427 13.6708 11.1781 13.4614 11.4876C13.2622 11.7816 13.0674 12.124 12.8773 12.5114V9.78439H7.95068L7.96579 10.7134C7.97591 11.3329 7.98089 13.2422 7.98089 16.4416C7.98089 19.6413 7.97093 23.8148 7.95089 28.9625H12.8773V18.2605C12.8773 17.6027 12.9319 17.0803 13.0419 16.6929C13.2517 16.0346 13.5684 15.4835 13.9929 15.0386C14.4173 14.5931 14.9437 14.3706 15.5728 14.3706C16.4311 14.3706 17.0627 14.7543 17.4671 15.522C17.8713 16.2895 18.0734 17.3507 18.0734 18.7055V28.9619H22.9998V17.9706C22.9995 15.1448 22.4808 13.0002 21.4425 11.5363Z" fill="#323232"/>
<path d="M2.78511 0.553467C1.95665 0.553467 1.28538 0.866554 0.771132 1.49212C0.256939 2.11782 0 2.90776 0 3.86268C0 4.80424 0.249544 5.59147 0.748684 6.22348C1.24767 6.85555 1.90661 7.17175 2.72516 7.17175H2.75511C3.59374 7.17175 4.27015 6.85582 4.78418 6.22348C5.29822 5.59147 5.55023 4.80452 5.54032 3.86268C5.53035 2.90783 5.27561 2.11782 4.77663 1.49212C4.2777 0.866283 3.61361 0.553467 2.78511 0.553467Z" fill="#323232"/>
</svg>
