<svg width="22" height="16" viewBox="0 0 22 16" fill="none" xmlns="http://www.w3.org/2000/svg">
<path d="M21.8874 14.4498C21.8617 14.3765 21.8376 14.3159 21.8153 14.2673C21.4467 13.3909 20.7421 12.3153 19.7021 11.0401L19.6802 11.0109L19.6691 10.9967L19.658 10.982H19.6468C19.1749 10.3881 18.8759 9.98889 18.7508 9.78456C18.5218 9.39514 18.4705 9.001 18.5956 8.60164C18.6841 8.29992 19.0163 7.66269 19.5914 6.68913C19.8939 6.17317 20.1336 5.75964 20.3105 5.44809C21.5866 3.20916 22.1399 1.77845 21.9701 1.1554L21.9043 1.00981C21.86 0.922144 21.7457 0.841966 21.5615 0.768823C21.3768 0.695847 21.1408 0.683788 20.8532 0.732418L17.6668 0.761469C17.6151 0.737326 17.5414 0.739582 17.4455 0.768823C17.3495 0.798078 17.3015 0.812762 17.3015 0.812762L17.246 0.84932L17.2021 0.893259C17.1652 0.922297 17.1246 0.973387 17.0803 1.04643C17.0362 1.1192 16.9994 1.20461 16.9699 1.30192C16.6231 2.47974 16.2286 3.57482 15.7859 4.5871C15.513 5.19071 15.2624 5.71383 15.0335 6.15675C14.8049 6.59953 14.6131 6.92579 14.4583 7.13484C14.3032 7.34415 14.1634 7.5119 14.0377 7.6386C13.9124 7.76531 13.8166 7.81884 13.7503 7.79921C13.6838 7.77971 13.6212 7.76021 13.562 7.74083C13.4587 7.65313 13.3757 7.53395 13.3132 7.38302C13.2504 7.23223 13.208 7.0423 13.1858 6.81362C13.1639 6.58465 13.1508 6.38776 13.1471 6.22222C13.1437 6.05688 13.1452 5.82301 13.1527 5.52129C13.1604 5.2194 13.1639 5.01514 13.1639 4.90805C13.1639 4.5381 13.1694 4.13659 13.1804 3.70344C13.1914 3.27027 13.2005 2.92707 13.2081 2.67423C13.2156 2.42113 13.2191 2.15336 13.2191 1.87107C13.2191 1.58877 13.2061 1.36738 13.1804 1.2067C13.1549 1.04621 13.1158 0.890443 13.0645 0.739429C13.0127 0.588555 12.937 0.471857 12.8377 0.389014C12.738 0.30626 12.6143 0.2406 12.467 0.191805C12.076 0.075055 11.5782 0.0118937 10.9732 0.00207855C9.60136 -0.0173606 8.71987 0.099555 8.32894 0.352647C8.17405 0.459581 8.03387 0.605687 7.90855 0.790519C7.77575 1.00475 7.75722 1.12165 7.8531 1.14088C8.29573 1.22838 8.60908 1.4377 8.79349 1.76863L8.85995 1.94399C8.91164 2.07051 8.96327 2.29451 9.01492 2.61567C9.0665 2.93683 9.0998 3.2921 9.11444 3.6813C9.15125 4.39199 9.15125 5.00037 9.11444 5.50645C9.07751 6.01275 9.04263 6.40688 9.00934 6.68918C8.97605 6.97142 8.9263 7.20023 8.85995 7.37538C8.79349 7.55065 8.74928 7.65772 8.72712 7.6966C8.70498 7.73548 8.68654 7.75995 8.67189 7.76951C8.57602 7.81795 8.47631 7.84268 8.37311 7.84268C8.26976 7.84268 8.14444 7.77448 7.99694 7.63809C7.84949 7.50183 7.69646 7.31457 7.53785 7.07595C7.37924 6.83745 7.20036 6.50406 7.00114 6.07579C6.80207 5.64755 6.59552 5.14141 6.38161 4.55738L6.20463 4.13384C6.09398 3.86136 5.94285 3.46461 5.75106 2.94395C5.55917 2.42308 5.38956 1.91924 5.2421 1.43253C5.18316 1.22812 5.09461 1.07251 4.97661 0.96542L4.92123 0.921481C4.88442 0.882616 4.82533 0.841341 4.74425 0.797364C4.66306 0.753438 4.57836 0.721927 4.48977 0.702552L1.45823 0.731602C1.14845 0.731602 0.938257 0.824209 0.827582 1.00919L0.783288 1.09669C0.761161 1.14543 0.75 1.22327 0.75 1.33041C0.75 1.43749 0.772127 1.56893 0.816421 1.72454C1.25897 3.09716 1.74023 4.42094 2.2602 5.69609C2.78018 6.97117 3.23203 7.99832 3.61548 8.77665C3.99901 9.55549 4.38995 10.2905 4.78827 10.9814C5.18661 11.6726 5.45028 12.1155 5.57929 12.3101C5.70844 12.505 5.80989 12.6508 5.88364 12.7481L6.16029 13.0985C6.33731 13.3322 6.59726 13.612 6.94026 13.938C7.28332 14.2642 7.66314 14.5855 8.07987 14.902C8.49669 15.2181 8.9816 15.4761 9.53486 15.6756C10.088 15.8753 10.6265 15.9554 11.1502 15.9168H12.4226C12.6806 15.8873 12.8761 15.7802 13.009 15.5954L13.0531 15.5222C13.0826 15.4641 13.1103 15.3739 13.136 15.2524C13.1618 15.1308 13.1747 14.9967 13.1747 14.851C13.1672 14.4325 13.1913 14.0553 13.2465 13.7194C13.3016 13.3838 13.3644 13.1306 13.4348 12.9602C13.505 12.7899 13.5843 12.6463 13.6726 12.5298C13.7609 12.413 13.824 12.3422 13.8609 12.3179C13.8977 12.2934 13.927 12.2769 13.9492 12.2668C14.1262 12.189 14.3345 12.2644 14.5745 12.4933C14.8143 12.7221 15.0391 13.0046 15.2494 13.3402C15.4597 13.6762 15.7122 14.0531 16.0073 14.4716C16.3024 14.8902 16.5604 15.2015 16.7817 15.4062L17.0029 15.5814C17.1506 15.6983 17.3424 15.8055 17.5784 15.9027C17.8141 16 18.0205 16.0243 18.1979 15.9756L21.0301 15.9174C21.3103 15.9174 21.5282 15.8562 21.6829 15.7347C21.8378 15.6131 21.9299 15.479 21.9595 15.3332C21.9892 15.1872 21.9907 15.0217 21.9652 14.8366C21.9389 14.6519 21.9131 14.5227 21.8874 14.4498Z" fill="white"/>
</svg>
